REM DIRINDEX 1\2,1\3
REM DIRNAME cjc039,folder01,folder02
TITLE ""
FILE "2321-2340.mp3" MP3
  TRACK 01 AUDIO
    TITLE "0:"
    INDEX 01 00:00:00
  TRACK 02 AUDIO
    TITLE "2:cjc039_3641"
    INDEX 01 00:00:25
  TRACK 03 AUDIO
    TITLE "0:"
    INDEX 01 00:01:42
  TRACK 04 AUDIO
    TITLE "3:cjc039_3642"
    INDEX 01 00:02:20
  TRACK 05 AUDIO
    TITLE "0:"
    INDEX 01 00:05:24
  TRACK 06 AUDIO
    TITLE "2:cjc039_3643"
    INDEX 01 00:06:69
  TRACK 07 AUDIO
    TITLE "0:"
    INDEX 01 00:08:38
  TRACK 08 AUDIO
    TITLE "3:cjc039_3644"
    INDEX 01 00:09:20
  TRACK 09 AUDIO
    TITLE "0:"
    INDEX 01 00:13:02
  TRACK 10 AUDIO
    TITLE "2:cjc039_3645"
    INDEX 01 00:14:51
  TRACK 11 AUDIO
    TITLE "0:"
    INDEX 01 00:16:08
  TRACK 12 AUDIO
    TITLE "3:cjc039_3646"
    INDEX 01 00:16:57
  TRACK 13 AUDIO
    TITLE "0:"
    INDEX 01 00:20:24
  TRACK 14 AUDIO
    TITLE "2:cjc039_3647"
    INDEX 01 00:22:07
  TRACK 15 AUDIO
    TITLE "0:"
    INDEX 01 00:23:38
  TRACK 16 AUDIO
    TITLE "3:cjc039_3648"
    INDEX 01 00:24:08
  TRACK 17 AUDIO
    TITLE "0:"
    INDEX 01 00:27:36
  TRACK 18 AUDIO
    TITLE "2:cjc039_3649"
    INDEX 01 00:29:17
  TRACK 19 AUDIO
    TITLE "0:"
    INDEX 01 00:30:20
  TRACK 20 AUDIO
    TITLE "3:cjc039_3650"
    INDEX 01 00:30:73
  TRACK 21 AUDIO
    TITLE "0:"
    INDEX 01 00:34:34
  TRACK 22 AUDIO
    TITLE "2:cjc039_3651"
    INDEX 01 00:36:11
  TRACK 23 AUDIO
    TITLE "0:"
    INDEX 01 00:37:38
  TRACK 24 AUDIO
    TITLE "3:cjc039_3652"
    INDEX 01 00:38:16
  TRACK 25 AUDIO
    TITLE "0:"
    INDEX 01 00:41:53
  TRACK 26 AUDIO
    TITLE "2:cjc039_3653"
    INDEX 01 00:43:31
  TRACK 27 AUDIO
    TITLE "0:"
    INDEX 01 00:44:52
  TRACK 28 AUDIO
    TITLE "3:cjc039_3654"
    INDEX 01 00:45:28
  TRACK 29 AUDIO
    TITLE "0:"
    INDEX 01 00:48:14
  TRACK 30 AUDIO
    TITLE "2:cjc039_3655"
    INDEX 01 00:49:59
  TRACK 31 AUDIO
    TITLE "0:"
    INDEX 01 00:50:62
  TRACK 32 AUDIO
    TITLE "3:cjc039_3656"
    INDEX 01 00:51:38
  TRACK 33 AUDIO
    TITLE "0:"
    INDEX 01 00:54:50
  TRACK 34 AUDIO
    TITLE "2:cjc039_3657"
    INDEX 01 00:56:24
  TRACK 35 AUDIO
    TITLE "0:"
    INDEX 01 00:57:17
  TRACK 36 AUDIO
    TITLE "3:cjc039_3658"
    INDEX 01 00:57:70
  TRACK 37 AUDIO
    TITLE "0:"
    INDEX 01 01:00:68
  TRACK 38 AUDIO
    TITLE "2:cjc039_3659"
    INDEX 01 01:02:46
  TRACK 39 AUDIO
    TITLE "0:"
    INDEX 01 01:03:59
  TRACK 40 AUDIO
    TITLE "3:cjc039_3660"
    INDEX 01 01:04:37
  TRACK 41 AUDIO
    TITLE "0:"
    INDEX 01 01:07:68
  TRACK 42 AUDIO
    TITLE "2:cjc039_3661"
    INDEX 01 01:09:48
  TRACK 43 AUDIO
    TITLE "0:"
    INDEX 01 01:10:59
  TRACK 44 AUDIO
    TITLE "3:cjc039_3662"
    INDEX 01 01:11:37
  TRACK 45 AUDIO
    TITLE "0:"
    INDEX 01 01:15:09
  TRACK 46 AUDIO
    TITLE "2:cjc039_3663"
    INDEX 01 01:16:60
  TRACK 47 AUDIO
    TITLE "0:"
    INDEX 01 01:18:00
  TRACK 48 AUDIO
    TITLE "3:cjc039_3664"
    INDEX 01 01:18:54
  TRACK 49 AUDIO
    TITLE "0:"
    INDEX 01 01:22:17
  TRACK 50 AUDIO
    TITLE "2:cjc039_3665"
    INDEX 01 01:23:65
  TRACK 51 AUDIO
    TITLE "0:"
    INDEX 01 01:25:06
  TRACK 52 AUDIO
    TITLE "3:cjc039_3666"
    INDEX 01 01:25:57
  TRACK 53 AUDIO
    TITLE "0:"
    INDEX 01 01:29:05
  TRACK 54 AUDIO
    TITLE "2:cjc039_3667"
    INDEX 01 01:30:56
  TRACK 55 AUDIO
    TITLE "0:"
    INDEX 01 01:32:23
  TRACK 56 AUDIO
    TITLE "3:cjc039_3668"
    INDEX 01 01:33:03
  TRACK 57 AUDIO
    TITLE "0:"
    INDEX 01 01:36:60
  TRACK 58 AUDIO
    TITLE "2:cjc039_3669"
    INDEX 01 01:38:38
  TRACK 59 AUDIO
    TITLE "0:"
    INDEX 01 01:39:55
  TRACK 60 AUDIO
    TITLE "3:cjc039_3670"
    INDEX 01 01:40:36
  TRACK 61 AUDIO
    TITLE "0:"
    INDEX 01 01:44:15
  TRACK 62 AUDIO
    TITLE "2:cjc039_3671"
    INDEX 01 01:45:65
  TRACK 63 AUDIO
    TITLE "0:"
    INDEX 01 01:47:03
  TRACK 64 AUDIO
    TITLE "3:cjc039_3672"
    INDEX 01 01:47:64
  TRACK 65 AUDIO
    TITLE "0:"
    INDEX 01 01:51:27
  TRACK 66 AUDIO
    TITLE "2:cjc039_3673"
    INDEX 01 01:53:04
  TRACK 67 AUDIO
    TITLE "0:"
    INDEX 01 01:54:15
  TRACK 68 AUDIO
    TITLE "3:cjc039_3674"
    INDEX 01 01:54:68
  TRACK 69 AUDIO
    TITLE "0:"
    INDEX 01 01:58:17
  TRACK 70 AUDIO
    TITLE "2:cjc039_3675"
    INDEX 01 01:59:67
  TRACK 71 AUDIO
    TITLE "0:"
    INDEX 01 02:00:71
  TRACK 72 AUDIO
    TITLE "3:cjc039_3676"
    INDEX 01 02:01:50
  TRACK 73 AUDIO
    TITLE "0:"
    INDEX 01 02:05:50
  TRACK 74 AUDIO
    TITLE "2:cjc039_3677"
    INDEX 01 02:07:29
  TRACK 75 AUDIO
    TITLE "0:"
    INDEX 01 02:08:27
  TRACK 76 AUDIO
    TITLE "3:cjc039_3678"
    INDEX 01 02:09:07
  TRACK 77 AUDIO
    TITLE "0:"
    INDEX 01 02:11:51
  TRACK 78 AUDIO
    TITLE "2:cjc039_3679"
    INDEX 01 02:13:30
  TRACK 79 AUDIO
    TITLE "0:"
    INDEX 01 02:14:47
  TRACK 80 AUDIO
    TITLE "3:cjc039_3680"
    INDEX 01 02:15:25
  TRACK 81 AUDIO
    TITLE "0:"
    INDEX 01 02:19:19
